name analog
datacolumns 19
datarows 43
range 0.6355000000000001 0.6565
endheader
time	ground_force_vx	ground_force_vy	ground_force_vz	ground_force_px	ground_force_py	ground_force_pz	l_ground_force_vx	l_ground_force_vy	l_ground_force_vz	l_ground_force_px	l_ground_force_py	l_ground_force_pz	ground_torque_x	ground_torque_y	ground_torque_z	l_ground_torque_x	l_ground_torque_y	l_ground_torque_z
0.6355000000000001	-0.0	-0.0	-0.0	13.93230438232422	5.375149726867676	-151.39173889160156	15.54006004333496	-53.57474899291992	-660.4097900390625	-0.0	-0.0	-0.0	-0.0	-0.0	-0.0	203293.125	-158282.640625	14449.0732421875
0.636	-0.0	-0.0	-0.0	14.98736572265625	3.2516775131225586	-135.4991912841797	15.58188819885254	-51.725433349609375	-647.7797241210938	-0.0	-0.0	-0.0	-0.0	-0.0	-0.0	199784.28125	-155960.21875	14093.5810546875
0.6365000000000001	-0.0	-0.0	-0.0	15.986871719360352	1.1433660984039309	-121.190185546875	15.697209358215332	-50.343360900878906	-636.2586059570312	-0.0	-0.0	-0.0	-0.0	-0.0	-0.0	196115.25	-153794.265625	14050.26953125
0.637	-0.0	-0.0	-0.0	17.961875915527344	-0.5958542227745056	-107.95205688476562	16.311527252197266	-49.55967330932617	-623.81201171875	-0.0	-0.0	-0.0	-0.0	-0.0	-0.0	193092.375	-151891.90625	14417.15234375
0.6375000000000001	-0.0	-0.0	-0.0	19.476266860961918	-2.586822271347046	-95.88430786132812	18.309057235717773	-49.28728866577149	-615.3722534179688	-0.0	-0.0	-0.0	-0.0	-0.0	-0.0	190333.125	-150225.75	15287.794921875
0.638	-0.0	-0.0	-0.0	20.80120849609375	-4.099998474121094	-84.1768569946289	20.77720069885254	-49.46014404296875	-605.1401977539062	-0.0	-0.0	-0.0	-0.0	-0.0	-0.0	187780.953125	-148675.46875	16327.716796875
0.6385000000000001	-0.0	-0.0	-0.0	21.67815399169922	-5.007767677307129	-75.57503509521484	23.21160888671875	-48.44913864135742	-597.8556518554688	-0.0	-0.0	-0.0	-0.0	-0.0	-0.0	185354.796875	-147415.265625	17096.861328125
0.639	-0.0	-0.0	-0.0	22.79281234741211	-6.833016395568848	-63.747108459472656	24.499412536621094	-47.827545166015625	-588.3804321289062	-0.0	-0.0	-0.0	-0.0	-0.0	-0.0	183189.90625	-145894.25	17640.095703125
0.6395000000000001	-0.0	-0.0	-0.0	23.358177185058597	-7.338619709014893	-55.0960693359375	25.297761917114254	-46.84073638916016	-580.4503173828125	-0.0	-0.0	-0.0	-0.0	-0.0	-0.0	180589.0625	-144599.078125	17676.51171875
0.64	-0.0	-0.0	-0.0	23.700180053710938	-7.560953140258789	-48.26667404174805	25.94690322875977	-45.882118225097656	-571.9699096679688	-0.0	-0.0	-0.0	-0.0	-0.0	-0.0	178053.625	-142946.890625	17711.17578125
0.6405	-0.0	-0.0	-0.0	24.13148307800293	-7.070984840393066	-40.380130767822266	25.88848304748535	-45.08906173706055	-565.572998046875	-0.0	-0.0	-0.0	-0.0	-0.0	-0.0	176312.59375	-141866.546875	17691.765625
0.641	-0.0	-0.0	-0.0	23.49195098876953	-6.328258514404297	-36.84962844848633	25.2088680267334	-44.6323356628418	-560.8504638671875	-0.0	-0.0	-0.0	-0.0	-0.0	-0.0	174698.34375	-140171.15625	17389.720703125
0.6415	-0.0	-0.0	-0.0	23.715274810791016	-6.0011515617370605	-32.08109664916992	24.410398483276367	-44.48439407348633	-553.4640502929688	-0.0	-0.0	-0.0	-0.0	-0.0	-0.0	173111.65625	-139373.375	16978.884765625
0.642	-0.0	-0.0	-0.0	24.518218994140625	-5.244035720825195	-28.54949188232422	23.581592559814453	-44.44062805175781	-548.7492065429688	-0.0	-0.0	-0.0	-0.0	-0.0	-0.0	171807.25	-138664.265625	16637.0546875
0.6425	-0.0	-0.0	-0.0	25.185033798217773	-4.561796188354492	-26.61645126342773	22.842914581298828	-44.30842208862305	-545.6082153320312	-0.0	-0.0	-0.0	-0.0	-0.0	-0.0	170719.71875	-137949.78125	16592.0703125
0.643	-0.0	-0.0	-0.0	25.603416442871094	-4.056426048278809	-22.603515625	22.709753036499023	-45.117488861083984	-546.0739135742188	-0.0	-0.0	-0.0	-0.0	-0.0	-0.0	170401.609375	-137753.53125	16596.685546875
0.6435	-0.0	-0.0	-0.0	26.64496612548828	-3.31458044052124	-21.954513549804688	23.39024353027344	-45.50030899047852	-545.025634765625	-0.0	-0.0	-0.0	-0.0	-0.0	-0.0	170565.28125	-137755.046875	16953.078125
0.644	-0.0	-0.0	-0.0	27.0280876159668	-2.3633029460906982	-23.491804122924805	23.729679107666016	-46.35432052612305	-545.0796508789062	-0.0	-0.0	-0.0	-0.0	-0.0	-0.0	170733.109375	-138017.0	17230.123046875
0.6445	-0.0	-0.0	-0.0	29.479551315307617	-1.6330533027648926	-27.84434127807617	23.95191192626953	-46.53101348876953	-546.4796142578125	-0.0	-0.0	-0.0	-0.0	-0.0	-0.0	171084.703125	-138585.984375	17348.927734375
0.645	-0.0	-0.0	-0.0	32.233604431152344	-0.3422296643257141	-35.79782485961914	23.982545852661133	-46.22115707397461	-545.8954467773438	-0.0	-0.0	-0.0	-0.0	-0.0	-0.0	171232.59375	-138469.03125	17349.0703125
0.6455	-0.0	-0.0	-0.0	32.918678283691406	1.618566393852234	-48.85151672363281	24.158227920532227	-45.750633239746094	-544.5628051757812	-0.0	-0.0	-0.0	-0.0	-0.0	-0.0	170447.140625	-137953.84375	17354.193359375
0.646	-0.0	-0.0	-0.0	31.284523010253903	4.039207935333252	-68.74150085449219	24.49857521057129	-45.29469299316406	-540.6000366210938	-0.0	-0.0	-0.0	-0.0	-0.0	-0.0	169792.875	-137695.28125	17399.455078125
0.6465	-0.0	-0.0	-0.0	29.57552528381348	6.848932266235352	-94.3931121826172	24.77898406982422	-44.45436096191406	-538.740966796875	-0.0	-0.0	-0.0	-0.0	-0.0	-0.0	169038.453125	-137273.109375	17518.603515625
0.647	-0.0	-0.0	-0.0	29.885520935058597	8.837945938110352	-131.99473571777344	25.15106964111328	-43.95269012451172	-533.740478515625	-0.0	-0.0	-0.0	-0.0	-0.0	-0.0	167755.0	-136127.890625	17350.646484375
0.6475	-0.0	-0.0	-0.0	31.36888694763184	11.244418144226074	-176.51390075683594	24.335187911987305	-43.60260391235352	-526.4780883789062	-0.0	-0.0	-0.0	-0.0	-0.0	-0.0	165142.828125	-134064.15625	17009.625
0.648	-0.0	-0.0	-0.0	33.88606262207031	13.157840728759766	-219.0924530029297	23.022361755371094	-42.36623764038086	-513.83984375	-0.0	-0.0	-0.0	-0.0	-0.0	-0.0	161923.265625	-131345.46875	16252.046875
0.6485	-0.0	-0.0	-0.0	36.24127960205078	15.536420822143556	-261.95751953125	21.720046997070312	-41.48312759399414	-501.32623291015625	-0.0	-0.0	-0.0	-0.0	-0.0	-0.0	157627.1875	-127825.9296875	15525.3017578125
0.649	-0.0	-0.0	-0.0	37.23472595214844	19.05379676818848	-301.2125549316406	19.49281311035156	-39.93986511230469	-486.9737548828125	-0.0	-0.0	-0.0	-0.0	-0.0	-0.0	152601.375	-123764.53125	14411.0556640625
0.6495	-0.0	-0.0	-0.0	35.55376052856445	24.99770736694336	-344.2426147460937	16.85504913330078	-38.58267974853516	-468.9300537109375	-0.0	-0.0	-0.0	-0.0	-0.0	-0.0	147392.34375	-119233.96875	13407.318359375
0.65	-0.0	-0.0	-0.0	32.719913482666016	30.8660888671875	-391.6207885742188	14.47900676727295	-36.733184814453125	-449.2486267089844	-0.0	-0.0	-0.0	-0.0	-0.0	-0.0	141435.90625	-114554.875	12160.3232421875
0.6505	-0.0	-0.0	-0.0	27.992244720458984	37.82475280761719	-441.8527221679688	12.009260177612305	-34.288185119628906	-428.8892822265625	-0.0	-0.0	-0.0	-0.0	-0.0	-0.0	134747.015625	-109323.4453125	10788.2783203125
0.651	-0.0	-0.0	-0.0	23.20258140563965	45.43511962890625	-492.53912353515625	10.071691513061523	-31.564289093017575	-407.3752136230469	-0.0	-0.0	-0.0	-0.0	-0.0	-0.0	128289.3828125	-103533.9765625	9616.9208984375
0.6515	-0.0	-0.0	-0.0	18.84507179260254	52.50317001342773	-544.2927856445312	8.120201110839844	-28.38490104675293	-385.7833862304688	-0.0	-0.0	-0.0	-0.0	-0.0	-0.0	121354.6171875	-97615.84375	8322.5029296875
0.652	-0.0	-0.0	-0.0	15.187787055969238	58.57698440551758	-593.7874145507812	6.74876070022583	-25.23950958251953	-362.1505432128906	-0.0	-0.0	-0.0	-0.0	-0.0	-0.0	114146.296875	-91836.125	6759.53564453125
0.6525	-0.0	-0.0	-0.0	13.87667179107666	64.58843231201172	-639.7505493164062	5.465793132781982	-20.86449432373047	-336.3421325683594	-0.0	-0.0	-0.0	-0.0	-0.0	-0.0	106238.6640625	-85976.28125	5527.56005859375
0.653	-0.0	-0.0	-0.0	13.787610054016112	70.53297424316406	-686.1923217773438	4.578442096710205	-17.095232009887695	-311.2299499511719	-0.0	-0.0	-0.0	-0.0	-0.0	-0.0	98177.0546875	-79118.1484375	4266.00537109375
0.6535	-0.0	-0.0	-0.0	15.08023452758789	75.90299224853516	-727.5126342773438	4.707290172576904	-12.53608512878418	-284.5894775390625	-0.0	-0.0	-0.0	-0.0	-0.0	-0.0	90182.5234375	-72706.6953125	3617.297607421875
0.654	-0.0	-0.0	-0.0	18.466575622558597	80.818115234375	-762.9337158203125	6.4006028175354	-7.793793201446533	-259.7801513671875	-0.0	-0.0	-0.0	-0.0	-0.0	-0.0	81812.8984375	-66305.5234375	2985.171875
0.6545	-0.0	-0.0	-0.0	20.89874839782715	84.87841033935547	-791.8404541015625	9.17730712890625	-3.2545955181121826	-234.1564483642578	-0.0	-0.0	-0.0	-0.0	-0.0	-0.0	74093.9921875	-60109.09765625	2767.304443359375
0.655	-0.0	-0.0	-0.0	21.549728393554688	88.22604370117188	-809.996826171875	11.332734107971191	0.8610685467720032	-211.7086639404297	-0.0	-0.0	-0.0	-0.0	-0.0	-0.0	67321.7421875	-54478.58984375	2402.17578125
0.6555	-0.0	-0.0	-0.0	23.06840133666992	91.2955551147461	-824.5797729492188	13.740925788879396	4.530777931213379	-187.1973876953125	-0.0	-0.0	-0.0	-0.0	-0.0	-0.0	60556.265625	-48810.9296875	2281.768310546875
0.656	-0.0	-0.0	-0.0	24.085378646850582	93.6645736694336	-836.5294189453125	15.498037338256836	7.802043437957764	-167.72067260742188	-0.0	-0.0	-0.0	-0.0	-0.0	-0.0	53721.265625	-43647.09765625	1949.977783203125
0.6565	-0.0	-0.0	-0.0	24.73711204528809	96.50244903564452	-842.6873779296875	16.602039337158203	11.017215728759766	-145.98463439941406	-0.0	-0.0	-0.0	-0.0	-0.0	-0.0	47051.578125	-37985.87109375	1594.5230712890625
